<svg version="1.2" xmlns="http://www.w3.org/2000/svg" viewBox="0 0 468 535" width="468" height="535"><style>.a{fill:#333}</style><path fill-rule="evenodd" class="a" d="m3.5 214.5c0-0.6 0.1-1 0.2-1.7q0.2-0.9 0.4-1.8c0.5-2.3 1.3-4.5 2.1-6.6 0.9-2 1.8-4 2.8-6 1.6-6.3 3.5-12.5 5.6-18.6q1.6-4.7 3.4-9.2l2-4.6c0.7-1.5 1.3-3 2.1-4.5 0.7-1.4 1.5-2.9 2.4-4.3 0.4-0.7 0.8-1.5 1.3-2.2l1.4-2.1c0.5-0.7 1.1-1.3 1.7-1.9 0.5-0.7 1.1-1.4 1.7-1.9l3.5-3.4q3.5-3.4 7.2-6.7c2.4-2.1 4.8-4.2 7.4-6.2 1.8-2.2 3.6-4.4 5.5-6.5 2-2.1 4-4.2 6.3-6.1 1.1-1 2.3-1.9 3.6-2.7 0.6-0.5 1.3-0.8 2-1.2l1.9-1 7.3-3.6c1.9-2.8 3.9-5.4 6.2-7.8 2.4-2.5 5-4.8 8-6.7 1.5-1 3-1.8 4.7-2.5 1.7-0.6 3.3-1 5-1.5 3.4-0.9 6.7-1.4 10.2-1.8 6.8-0.7 13.9-0.1 20.4 2.2 3.3 1.1 6.4 2.7 9.3 4.7q1.1 0.7 2 1.6c0.7 0.6 1.4 1.1 2 1.7 1.3 1.3 2.3 2.7 3.3 4 1.1 1.3 2.1 2.6 3.3 3.5q0.6 0.5 1.2 0.8c3.5-0.5 11.5-2.5 18.5-9.1q0.5-0.5 1.1-1.1-0.6 0.6-1.3 1.1c-3.9 3.4-8.5 6-13.3 7.8 4.8-1.9 9.3-4.5 13.2-7.9 2-1.7 3.8-3.6 5.3-5.7 0.8-1 1.3-2.1 2-3.3 0.5-1.2 1-2.3 1.4-3.5 1.7-4.9 3.1-10 3.4-15.1 0.2-2.6 0.1-5.1-0.2-7.7-0.3-2.5-0.9-5.1-1.1-7.7-0.6-5.2-0.3-10.4 0.7-15.5 1.1-5.2 3-10.1 5.5-14.7 1.3-2.2 2.6-4.5 4.2-6.5 1.5-2.2 3.2-4.2 5.1-6 3.9-3.6 8.6-6.2 13.5-8 4.9-1.8 10.1-2.8 15.3-3.2 5.2-0.5 10.5-0.4 15.7 0.1 2.6 0.3 5.1 0.5 7.8 1.2 2.5 0.7 5 1.5 7.4 2.4 4.9 1.8 9.7 4.1 14.2 6.8 4.4 2.7 8.6 6.1 12.1 10 3.5 3.9 6.6 8.4 8.2 13.6 1.5 4.6 2.8 9.3 3.7 14.1 1.1 4.2 2.1 9.2 0.8 12.6q0 0.2 0 0.4c-0.1 0.7-0.3 1.4-0.6 2.1-0.1 0.3-0.3 0.7-0.5 1-0.1 0.2-0.2 0.4-0.3 0.5-0.2 0.2-0.3 0.4-0.7 0.6l-0.1 0.1h-0.1c-1.4 0.4-2.8 1.1-3.8 1.9-0.5 0.4-0.8 0.9-0.9 1.3-0.1 0.4 0 0.7 0.3 1.6 0.6 1.3 1.3 2.7 2 4.1q1.1 2.1 2.1 4.2c0.7 1.4 1.3 2.9 1.9 4.4 0.2 0.8 0.5 1.6 0.6 2.5 0.1 0.9 0.3 1.8-0.3 3.1-0.4 0.7-1.2 1.5-1.9 2-0.6 0.6-1.4 1-2.1 1.4-1.1 0.6-2.3 1.1-3.5 1.6 0.4 2 0.6 4 0.7 6.2q0 0.9-0.1 1.9c-0.1 0.6-0.3 1.3-0.6 2l-0.3 0.6c-0.1 0.2-0.2 0.3-0.3 0.4l-1.6 2.1-0.1 0.1-0.2 0.2c-1 0.7-2 1.7-3 2.6-0.9 1-1.7 2.1-2.4 3.2-0.7 1.1-1.1 2.2-1.4 3.6-0.3 1.4-0.7 2.8-1.2 4.2-0.9 2.8-2.1 5.6-4 8-1 1.2-2.1 2.3-3.6 3.1-0.8 0.4-1.5 0.7-2.4 0.9q-1 0.2-2.2 0.3c-3 0.3-5.9 0.2-8.8 0q-4.3-0.3-8.6-1.1c-1.4-0.3-2.9-0.7-4.3-1.2-1.4-0.4-2.8-1-4.1-1.6-2.2-0.9-4.4-2-6.5-3.1-2.1 3.5-4 7.1-5.4 10.8-0.3 1-0.7 2-0.9 3-0.1 0.4-0.2 1.1-0.3 1.6q0 0.7-0.1 1.5 0 1.5 0.3 3 0.2 0.8 0.5 1.5 0.1 0.4 0.3 0.7l17.4 5 9 2.5q2.2 0.7 4.5 1.2 1.1 0.2 2.2 0.4c0.6 0.1 1.4 0.3 1.9 0.3 2.8-0.6 5.5-1.1 8.2-1.5q4.3-0.6 8.6-0.9c2.8-0.1 5.7-0.3 8.6-0.2 1.4 0.1 2.8 0.2 4.3 0.3 1.4 0.2 2.9 0.3 4.3 0.6 1.5 0.2 2.9 0.7 4.3 1.1 1.5 0.5 2.7 0.9 4.1 1.5 1.4 0.6 2.6 1.3 3.9 2 1.3 0.7 2.5 1.4 3.7 2.3q1.9 1.2 3.6 2.5 1.7 1.3 3.3 2.8 1.6 1.5 3.1 3c1 1.1 1.9 2.1 2.9 3.4l0.1 0.1v0.1l4.9 9.6q2.7-0.8 5.4-1.5c2.3-0.6 4.6-1.1 7-1.5q3.5-0.6 7.1-0.9c1.2 0 2.4-0.1 3.6-0.1q1.8 0 3.6 0.2c1.2 0 2.4 0.3 3.7 0.5l1.8 0.5 0.4 0.2h0.2 0.1l0.2 0.1 0.8 0.3c1.1 0.4 2.2 0.9 3.3 1.4 1.1 0.5 2.2 1 3.3 1.6q3.2 1.7 6.1 3.8 1.5 1 2.9 2.2 0.5 0.5 1.1 1c3.2-5.5 6.7-10.7 10.5-15.8 2.2-2.8 4.4-5.5 7-8.1 0.7-0.6 1.4-1.2 2.1-1.8l1.9-1.7c1.2-1.1 2.4-2.2 3.5-3.5q1.7-1.9 3.3-3.9 1.5-2 2.9-4.2c1.9-2.8 3.6-5.8 5-8.8q1.1-2.3 1.9-4.7 0.4-1.1 0.8-2.4 0.3-1.2 0.6-2.4 0.5-2.5 0.9-5 0.2-1.7 0.3-3.4-0.4 0-0.7-0.1-1.2-0.1-2.4-0.4-1.2-0.2-2.4-0.6c-0.8-0.3-1.7-0.6-2.5-1-0.8-0.5-1.6-1-2.3-1.9-0.4-0.4-0.6-1-0.9-1.6q-0.1-0.4-0.1-0.9l-0.1-0.4c0 0 0-0.2 0-0.3v-0.5l-0.1-0.5c0-0.2-0.1-0.6-0.2-0.9q-0.3-0.9-0.7-2c-0.3-0.7-0.6-1.4-0.9-2.3-0.2-0.8-0.4-1.8-0.4-2.8 0-1.1 0.4-2.1 0.9-3 0.5-0.9 0.9-1.5 1.4-2.1 1.7-2.3 3.5-4.6 5.3-6.8 0-1.1 0-2 0.2-3.1q0.2-1.9 0.9-3.7c0.9-2.4 2.4-4.5 4.1-6.3 0.9-0.9 1.7-1.6 2.6-2.5q1.2-1.2 2.6-2.3c1.8-1.5 3.6-3 5.8-4.2 1.2-0.6 2.3-1.2 3.8-1.4 0.7-0.1 1.5-0.2 2.4 0 0.2 0.1 0.3 0.1 0.7 0.2l0.4 0.1c0.2 0.1 0.7 0.4 1 0.6 1.3 0.7 2.2 1.8 2.9 2.5 0.7 0.7 1.1 0.9 1.8 0.9 0.2 0 0.4 0 0.6 0l0.9-0.1c0.3 0 0.7 0 1.1 0q0.5 0 1 0.1c1.3 0.1 2.7 0.5 3.9 1.2 1.2 0.7 2.3 1.6 3.1 3q0.3 0.6 0.5 1.2l0.2 0.9 0.4 1.3c1.7 2.1 3.3 4.2 4.9 6.5q0.6 1 1.2 2c0.2 0.4 0.3 0.8 0.5 1.3l0.3 1q0.3 0.9 0.6 1.8c0.3 0.6 0.5 1.2 0.8 1.8 0.4 0.6 0.8 1.1 1.1 1.7q0.6 0.9 1.1 1.9 1.1 2 1.7 4.2 0.3 1.2 0.5 2.4c0.1 0.7 0.2 1.4 0.2 2.1q0.2 2.2 0.2 4.4c-0.1 1.5-0.1 2.9-0.3 4.4-0.1 0.8-0.2 1.5-0.5 2.3-0.2 0.8-0.4 1.6-1 2.5-0.2 0.2-0.3 0.4-0.6 0.7-0.3 0.2-0.7 0.4-0.9 0.5-0.3 0.2-0.7 0.3-1.1 0.5q-1.1 0.4-2.2 0.6-1.6 0.4-3.2 0.7c-0.6 2.1-1 4.4-1.4 6.6-0.3 2.7-0.5 5.3-0.6 8 0 2.6 0.1 5.3 0.4 7.9 0.2 1.3 0.4 2.6 0.6 3.9l0.9 4c0.3 1.3 0.6 2.6 0.7 4.1 0.2 1.4 0.4 2.8 0.5 4.1 0.2 2.8 0.3 5.6 0.3 8.3 0 2.8-0.1 5.5-0.2 8.3-0.1 2.7-0.3 5.5-0.5 8.2q-0.4 4.1-0.9 8.2c-0.4 2.7-0.8 5.4-1.3 8.1q-0.7 4.1-1.6 8.1c-0.3 1.3-0.7 2.7-1.1 4q-0.6 2-1.2 4l-0.8 2-0.2 0.5-0.1 0.3-0.1 0.2-0.5 0.9c-0.5 1.2-1.2 2.5-1.9 3.7q-2.2 3.7-4.8 7-2.6 3.2-5.6 6.2c-1.8 1.8-3.7 3.4-5.8 5.1-0.8 3.2-1.8 6.3-3.1 9.4-1.5 3.2-3.3 6.4-6.4 8.8-3.3 2.2-6.9 2.8-10.3 3.4-3.4 0.5-6.8 0.7-10.1 1.2-1.6 0.2-3.2 0.5-4.8 0.9q-1.1 0.3-2.1 0.8c-0.8 0.3-1.5 0.7-2.4 1-3.2 1.4-6.5 2.5-9.8 3.4-3.3 1-6.6 1.7-10 2.4q-5 1-10.2 1.6c-3.4 0.3-6.8 0.6-10.3 0.5l-2.5 0.1-2.6-0.2c-1.7-0.1-3.5-0.1-5.2-0.4-1.7-0.3-3.4-0.4-5.1-0.8l-5.1-1-4.9-1.6c-1.7-0.5-3.3-1.3-4.9-1.9-1.6-0.6-3.1-1.4-4.6-2.1l-4.6-2.3q-4.6-2.3-9.1-4.7-4.5-2.3-8.9-4.9-2.3-1.3-4.4-2.7-0.9-0.6-1.9-1.2-0.7-0.2-1.5-0.2-1.2 2.2-2.6 4.3-1.9 3.1-4.1 6c-1.5 1.9-3 3.8-4.7 5.5-0.8 1-1.7 1.8-2.5 2.7l-2.7 2.4c-0.8 0.9-1.7 1.7-2.4 2.5-0.8 0.9-1.5 1.8-2.2 2.7-0.7 1-1.4 1.9-2 2.9q-0.9 1.5-1.7 3.1c-0.5 1-1.1 2.1-1.5 3.1q-0.7 1.6-1.3 3.3c-0.8 2.1-1.5 4.3-2 6.5 2.3 10.8 4.6 21.6 6.7 32.4l1.5 8.2c0.5 2.8 1 5.5 1.2 8.4 0.4 5.4 0.6 10.8 0.6 16.2q4.1 2.1 8 4.7 2.1 1.3 4 2.9c1.3 1 2.6 2.2 3.5 3.6 1 1.5 1.7 3 2.3 4.5q1 2.2 1.9 4.5c1.1 3.1 2.2 6.2 3.1 9.3q1.5 4.6 2.7 9.4 0.7 2.3 1.2 4.7c0.3 1.6 0.7 3.2 0.9 4.9 0.3 3.2 0.4 6.5 0.3 9.8q-0.1 4.8-0.6 9.6c3.4 6.6 6.5 13.4 9.2 20.4 1.3 3.6 2.4 7.1 3.3 10.8l0.5 2.8 0.3 2.8q0.2 2.8 0.3 5.7c0.2 3.7 0.2 7.5 0.1 11.2q0 5.6-0.3 11.3 0 2.2-0.2 4.5c-0.3 10.9-1 19.8-1 19.8l-14.1 3.4c0 0 0.5-18.7-3.4-32.9-4-14.1-9.7-27.2-3.4-20.4 6.2 6.8 3.9 0 0.5-12.4-3.4-12.5-9-29.5-15.3-38.6-6.2-9-36.2-36.8-54.4-36.8-18.1 0-1.1 27.2 2.3 34.6 3.4 7.3 38 47 38 47 0 0-36.3-34-44.2-36.3-8-2.2 32.3 94.7 32.3 94.7l-69.2-2.9c0 0-0.1-1.1-0.4-3l-1.2 0.1c-0.7-7.1-1.4-14.1-2.3-21.2q-0.3-2.6-0.8-5.2c-0.1-0.9-0.2-1.7-0.4-2.6-0.2-0.8-0.4-1.6-0.6-2.4-0.3-0.9-0.5-1.7-0.8-2.5q-0.4-1.2-0.9-2.4-0.5-1.2-1.1-2.4c-0.3-0.7-0.6-1.4-1-2.1-4.7-3.6-9.2-7.4-13.5-11.6q-1.6-1.6-3.2-3.3c-1-1.2-2-2.4-2.9-3.6q-1.4-1.8-2.7-3.7-0.6-1-1.2-2c-0.4-0.6-0.7-1.2-1.1-2-1.3-2-2.5-3.9-3.7-5.9q-1.7-3.1-3.2-6.3-0.8-1.6-1.5-3.2c-0.4-1.1-0.9-2.2-1.3-3.3-0.5-1.1-0.9-2.2-1.3-3.3l-1.1-3.3c-0.4-1.1-0.7-2.3-1-3.4-0.3-1.1-0.6-2.3-0.8-3.4l-0.8-3.5-0.5-3.5c-0.2-1.2-0.2-2.3-0.3-3.5 0-1.2-0.2-2.4-0.2-3.6 0.1-2.3 0.1-4.7 0.5-7 0.1-1.2 0.2-2.4 0.5-3.6l0.7-3.4c0.4-2.3 1.1-4.6 1.7-6.8 0.7-2.2 1.3-4.5 2.2-6.7 0.7-2.2 1.6-4.4 2.5-6.5 0.9-2.2 1.9-4.3 2.9-6.4q1.5-3.2 3.2-6.2c2.3-4 4.7-7.9 7.4-11.6q-1-5.7-2.3-11.3c-0.8-3.9-1.8-7.7-2.9-11.4q-0.8-2.9-1.8-5.6c-0.7-1.8-1.4-3.6-2.5-5.3-1.9-3.4-4.3-6.5-6.9-9.4q-1.9-2.2-4.1-4.2c-1.4-1.4-2.8-2.7-4.3-4.1-2.8-2.7-5.6-5.5-8.2-8.4-2.7-2.9-5.4-5.9-7.2-9.4-1.6-3.1-2.9-6.4-4-9.8q-1.3 0.1-2.6 0.2c-3 0.2-6.1 0.2-9.1 0.2-3-0.1-6.1-0.4-9.1-0.7q-4.5-0.5-9-1.2c-3-0.5-6-1-8.9-1.7-6-1.3-11.8-2.7-17.6-4.9-2.9-1.1-5.8-2.6-8.2-4.8-2.4-2.1-4.4-4.4-6.3-6.8-3.8-4.7-7.2-9.5-10.4-14.6-3.5-2.4-7.1-5-10.6-7.6q-1.3-1-2.7-2.1l-0.3-0.3-0.2-0.2-0.2-0.1-0.6-0.6c-0.4-0.5-0.9-1.1-1.2-1.6-1.5-2-2.4-4.3-3-6.6q-1-3.5-1.1-7c0-1.2 0.1-2.4 0.2-3.6zm3.4 3.5c0.1 2.1 0.4 4.2 0.9 6.2 0.6 2 1.3 3.9 2.5 5.5 0.2 0.4 0.5 0.7 0.8 1l0.6 0.6c0 0 0.1 0.1 0.1 0.1l0.1 0.1 0.3 0.3q1.3 1 2.6 2 2.8 2.1 5.6 4.2c4.6 0.5 9.6-4.9 12.4-8.2-2.9 1.6-5.6 3.1-7.2 3.3-8 1.2-13.6 1.7-16.5-6.8-1.2-3.8-0.6-8.3 0.9-12.5 1.1-3.4 2.8-6.6 4.3-9.3-4.6 11.1 15.8 21.4 15.1 5.6q-0.2-4.8-0.4-9.7c0.9 8.9 5.7 17.2 12.7 22.6 4.5-0.2 10.7 2.3 14.2 3.1 6.9 1.7 13.6 3.8 20.4 5.4 11.9 2.7 23.8 5.4 35.4 9 20.4 6.2 55.5 24.4 55.5 24.4-12.5-4.6-9.1 6.8-9.1 6.8q-5-0.8-10-1.6c-3.8-0.6-6.8-0.5-9.9 0 2.9 0.4 5.5 1.1 8.1 1.8q4.4 1.2 8.7 2.5l0.7 0.2 0.2 0.7c0.1 0.5 0.2 1.1 0.4 1.6q0.2 0.8 0.5 1.6 0.6 1.6 1.4 3.2 0.7 1.6 1.5 3.2l0.8 1.5 0.8 1.5c1.2 2 2.6 3.8 4.2 5.4q1.2 1.2 2.6 2.3c0.9 0.7 1.8 1.4 2.7 1.9l1 0.6-0.6 0.9c-2 3.3-3.8 6.9-4.7 10.5-0.1 0.5-0.1 0.9-0.2 1.4 0 0.4-0.1 0.7 0 1.3 0.1 0.8 0.5 1.8 0.7 2.7q0.4 1.2 1 2.2 1.9 1.4 3.9 2.5c1.2 0.2 2.5 0.4 3.8 0.5l5.9 0.8q1.9 0.2 3.9 0.4c-5.9-0.8-11.9-1.9-13.8-3.2-3.9-2.8-2.2-6.8 0-13.6 2.3-6.8 7.4-10.2 7.4-10.2 0 0-2.3 4.6-2.8 8-0.6 3.4 5.1-0.6 7.3-1.7 2.3-1.2 4.6 1.1 7.4 3.4 2.8 2.2 5.1-2.9 5.1-2.9 0 0 2.3 3.4 5.7 4.6 3.2 1 9.6-4.3 9.1-7.5-0.3-2.2-1.2-4.3-2.2-6.3q-3.4-7.5-7.4-14.8c4.8 6.7 9.9 14.9 11.4 23.1 0.2 1 0.1 2.1-0.2 3.1-0.6 2-1.6 3.7-2.6 5.4l-3.1 5.1q-0.2 0.3-0.3 0.5c-0.8 4-2.4 13-0.2 15.2 2.8 2.8 22.1 15.3 24.4 19.2 1.9 3.4 3 7.6 3.3 8.8 5.1 1.2 12 2.9 15.4 4.3 5.6 2.2 10.7 2.8 13-0.6 1.2-1.8 1-10.9 0.5-19-2.2-10.7-4.5-21.4-6.8-32.1l-0.1-0.2 0.1-0.2c0.5-2.5 1.2-4.8 2-7.1q0.6-1.7 1.4-3.3c0.4-1.2 1-2.3 1.5-3.4q0.9-1.6 1.8-3.2c0.7-1 1.4-2 2.1-3 0.7-1 1.4-2 2.3-2.9 0.8-1 1.7-1.8 2.5-2.6l2.6-2.5c0.9-0.8 1.7-1.7 2.5-2.5 1.6-1.8 3.1-3.6 4.5-5.5q2.1-2.8 4-5.8 0.8-1.3 1.6-2.7c-1.1 0.4-2.2 0.9-3.2 1.4q-4.2 2.1-8.3 4.2c-2.8 4-6.7 9.7-9.9 14.5-5.6 8.5-10.7 22.6-11.3 25.5-0.6 2.8-0.6 2.8-0.6 2.8 0 0-5.6-6.2-8.5-6.2-2.8 0-2.8 0-2.8 0 0 0 3.4-3.4 5.1-14.8 1.5-9.8 2.9-22.5 3.3-25.8-0.3 2.8-0.9 12 2.9 13.9 4.6 2.3 11.4-1.1 11.4-1.1l10.8-10.8c6.9-13.7 0-28.5-4-42.5-1.2-3.9-14.6-23.4-18-19.4-1.1 1.3-1.1 3.1-1.1 4.7q0.1 15.2 0.3 30.4c-2.3-14.3-4.5-28.7-3-43 0.3-2.8 0.8-5.6 0.8-8.4 0.1-9.5-5.3-16.2-10.2-23.8 0 0 20.4 8 38 17 17.5 9.1 24.9 0 23.8-6.8-1.2-6.8-19.3-11.9-19.3-11.9 5 0.3 10.2 1.4 14.8 3.3 3.1 1.3 13.1 9.9 15.7 9.1 1.9-0.6 2.2-2.8 1.8-4.9-0.4-0.4-0.8-0.7-1.2-1.1q-1.6-1.3-3.3-2.4c-1.2-0.8-2.4-1.4-3.5-2.1-1.2-0.7-2.4-1.3-3.7-1.8-1.1-0.6-2.6-1.1-3.8-1.5-1.3-0.4-2.5-0.8-3.9-1-1.3-0.3-2.7-0.4-4-0.6-1.4-0.1-2.8-0.2-4.1-0.2-2.8-0.1-5.6 0-8.3 0.2q-4.2 0.3-8.3 0.8-1.7 0.3-3.3 0.6l15.1 1.6c0 0-18.7 2.3-30.6-1.1-6.2-1.8-12.9-4.6-17.9-6.9l-8.4-2.4-0.6-0.2-0.3-0.4c-0.4-0.7-0.6-1.3-0.9-1.9q-0.3-0.9-0.5-1.8-0.4-1.7-0.4-3.4c-1.8-1.9-5.6-6.3-6.6-11.6-1.4-7-1.4-37.1-3.5-41.3-2.1-4.2-5.6-7.7-5.6-7.7 0 0 3.6-1.8 7.1 2.2-1-1.4-2.2-2.7-3.8-3.5-6-3.4-11.4 3.3-11.4 3.3 0 0 4.7 18.9 5.4 27.7 0.6 8.7 0 11.4 0 11.4l-4.1-17.5-5.4 12.8c0 0-5.4-2-10.7-2.7-3.6-0.4-7.9 0-10.4 0.3 3.1 0.6 6.1 1.6 9 2.8q4.7 1.9 9.2 4.4c3 1.5 5.8 3.5 8.6 5.3l16.8 11.3-17.1-10.8c-2.9-1.8-5.7-3.6-8.7-5.1q-4.5-2.3-9.2-4.2c-3.1-1.2-6.3-2.2-9.6-2.6l-2.5-0.3c-0.9-0.1-1.7-0.3-2.6-0.5-1.7-0.5-3.3-1.2-4.8-2-3.1-1.6-5.8-3.7-8.6-5.5-0.7-0.5-1.3-0.8-2.1-1.2-0.6-0.4-1.4-0.8-2-1.3-0.5 1.4-2.1 5.2-4.3 8-2.9 3.4-2.9 3.4-2.9 3.4 0 0 5.1-10.8 2.3-15.9-0.5-0.9-1-1.7-1.5-2.3-0.2-0.3-0.5-0.6-0.7-0.9-0.6-0.6-1.3-1-1.9-1.6q-0.9-0.8-2-1.4c-2.7-1.9-5.6-3.4-8.8-4.4-6.2-2.1-12.9-2.5-19.5-1.8-3.3 0.4-6.6 1-9.7 1.9-1.6 0.4-3.3 0.9-4.7 1.5-1.5 0.5-2.9 1.3-4.3 2.2-2.7 1.8-5.1 4-7.3 6.4-2.2 2.4-4.3 5.1-6 7.8l-0.2 0.4-0.4 0.2-0.6 0.3c0.2 3.3 0.9 11.3 3.6 16.1 3.4 6.2 5.1 8.5 5.1 8.5 0 0-2.4-2.4-5-5.9-1.7-1.3-3.6-2.7-5.6-3.9-3.1-1.8-6.5-3-9.5-2.4-10.5 2.3-13.1 11.4-7.8 20-7.9-12.8-23.2 6.4-27.3 13.8-5.2 9.5-10.3 18.4-12.9 22.6-1.6 5.1-3.1 10.2-4.4 15.3 3.5-2.6 8.4-4 8.4-4-4 3-8.4 7.6-11.4 10.9q0 0.1-0.1 0.2c-0.8 2.1-1.5 4.1-2 6.1q-0.2 0.8-0.3 1.5c-0.1 0.5-0.1 1.2-0.2 1.6-0.1 1-0.1 2-0.1 3.1zm171.2-129.7c-0.4 1.2-0.9 2.4-1.5 3.6-0.6 1.1-1.2 2.2-2 3.3q-0.3 0.3-0.5 0.6 1.2-1.4 2.2-2.8c2.8-5.4 4.7-11.8 5.1-17.7-0.6 4.5-1.8 8.8-3.3 13zm90.2-72.4c-4.4-2.7-9-4.9-13.8-6.8q-2.6-1-5.4-1.8c-7.9-0.8-16.4 1.5-21.2 7.8-1.6 2.2-2.7 4.8-2.5 7.5 0.8 8.3 9 16.1 15.7 19.8 6.8 3.8 11.6 6.2 19.2 8.4-2.6 1.2-4.1 2.4-5.7 4.5-0.3 0.4-1.2 2.7-1.8 4.4 2.4-1.2 4.9-2.9 6.2-3.4 4-1.5 8.1-2.9 12.1-4.2 1-0.3 4.8 3.8 6 4.3 1.1 0.5 2.3 0.8 3.6 1-6.1-3.8-10.9-9.6-13.6-16.2q2.6 2.2 5.2 4.4c1.5 1.2 3 2.5 4.8 3.3 8.5 3.5 7.7-6.6 5.8-14.9-1.6-4-3-7.4-4-9.6-3.2-3.2-6.7-6.1-10.6-8.5zm12.5 10.7q-0.2-0.3-0.4-0.6 0.2 0.4 0.5 0.9 0-0.2-0.1-0.3zm10.9 63.1q-0.2-1.1-0.6-2.1c-0.4-1.4-1.1-2.8-1.7-4.2q-1-2.1-2-4.2c-0.7-1.4-1.4-2.7-2.1-4.3-0.1-0.3-0.3-0.8-0.4-1.3-0.5-0.4-1.1-0.7-1.8-0.8-7.9-0.7-10 11-9.6 16.4-0.2-2-8.5-2.6-9.8-1.4 0 0-10.1 9.4-10.1 9.4 0 0-14.5 11.2-14.8 11.4 4.5-3.5 11.6-9.4 11.4-16-0.2-5.6-8.2-10.2-12.1-13.6 0 0 15.8 0.7 16.1 0.7 1 0 4.7-6.4 5.4-7.4-4.1-3.6-5.6-7.8-10.6-10.3-4.4 0.2-9-0.1-13.4 0.7-5.4 1-10.9 4-12.7 9.2 1.2-3.3-5.2-11.2-7.1-13.5-3.4-3.9-7.7-7.6-13.1-8.1-1.9-0.2-3.9 0.3-5.2 1.7-1.1 1.3-1.5 3.1-1.7 4.8-0.8 5.2-1.1 11.1 2.1 15.3 2.1 2.9 14.6 14.5 18 10.3 1.7-2.2 2.6-4.3 3-5.6-0.4 1.7-1.2 5.2-1.7 10.3-0.4 4.3-0.5 7.2-0.6 8.9 0.7 2.5 1.3 5.5 1.8 9.3l11.4 21.2 0.3-0.5 1.2 0.6q2.3 1.3 4.6 2.4c1.5 0.1 4 0.5 7.6 1.2 6.7 1.3 14.8 0.7 20.8-2 6.1-2.7 5.4-9.4 5.4-9.4-2.2-1-4.9-2.6-7.3-3-4.6-0.7-6.5 1.6-10.1 5.1q2.1-4 4.1-8c2.5-4.9 11.3-2.8 16-2.2 4.8 0.5 7.5-2.7 8.4-4.1-6.9-1.4-16.2-2.8-21.6 0.2 5.9-3.3 12.5-5.2 19.3-5.7 1-4.1-3.8-7.7-6.1-10.6 0 0 6.1 4 10.1 2 2.9-1.5 6.9-1.2 8.9-0.9q0.1-0.2 0.3-0.4c0.1-0.2 0.1-0.9 0-1.5zm-52.9 18.9q0 0 0 0 0 0 0 0zm51.9-51.2q0.1 0 0.2 0 0.2-0.1 0.1-0.5-0.1 0.3-0.3 0.5zm90.2 141.9l-1.1 1.9-1.6-1.6c-0.7-0.8-1.6-1.6-2.4-2.3q-1.3-1-2.7-2-2.7-2-5.7-3.6c-1-0.5-2-1-3-1.5-1.1-0.4-2-0.9-3.2-1.3l-1-0.3v-0.1c0 0.1 0 0 0 0h-0.1l-0.4-0.1-1.6-0.4c-1-0.2-2.1-0.5-3.2-0.5q-1.7-0.2-3.3-0.2c-1.2 0-2.3 0.1-3.4 0.1q-3.4 0.3-6.8 0.9c-2.2 0.3-4.5 0.8-6.7 1.4-2 0.5-4.1 1-6.1 1.7q0.1 0 0.1 0.1c-0.6 0.1-1.2 0.3-1.8 0.4l-0.1 0.1c-7.4 1.9-14.1 6-19.1 11.8q-0.7 1.4-1.1 3c-1.5 5.8 1 13.9 8.1 13.5 4.7-0.2 9.6-6 3.9-9.1 12.7 6.9 26.1 12.5 39.9 16.8 2.7 0.8 5.4 1.6 8.2 1.7 7.5 0.3 14.4-4.1 20.6-8.3q-4-8.2-8.1-16.5c8.3 4.8 15.8 10.6 22.4 17.5 3.8-7.1 5.8-15.1 5.8-23.1 0-1.8-0.1-3.7 0.5-5.4 0.7-2 2.2-3.5 3.6-5 5.7-6.4 9.2-14.4 14.4-21.2 5.3-6.8 13.4-12.5 21.8-11 5 2.8 7 9 7.9 14.9q-0.2-1.5-0.4-2.9c-0.1-1.3-0.4-2.6-0.7-3.9l-0.9-4.1c-0.2-1.3-0.5-2.7-0.6-4.1q0-0.4-0.1-0.8c-1.1-2.3-2-3.8-2.4-3.8-1.8 0-6.6 5.4-12.6 3.6-6-1.8-20.5 0.6-24.7 6.7-0.6 0.8-1.6 1.7-2.8 2.8-1.4 2.8-2.6 5.4-3.3 7.5-2.7 8.1-3.4 12.1-3.4 12.1v-14.5q-0.4 0.4-0.8 0.9l-2.1 1.7c-0.6 0.5-1.2 1-1.8 1.6-2.4 2.3-4.6 5-6.7 7.7-4.1 5.4-7.9 11.3-11.4 17.2zm83.2-81.9c-0.1-0.6-0.1-1.4-0.2-2q-0.1-0.9-0.4-1.8-0.6-1.8-1.5-3.6-0.4-0.9-0.9-1.7c-0.4-0.6-0.8-1.2-1.1-1.6l-0.1-0.2-0.1-0.1q-0.1-0.2-0.2-0.4c-1.1 0.3-2.5 1-4 2.5-2.8 2.8-2.8 2.8-2.8 2.8 0 0 3.8-8.6 3.9-12.2q0-0.1-0.1-0.2c-1.5-2.3-3.2-4.5-5-6.6l-0.3-0.3v-0.4l-0.5-1.7-0.2-0.8q0-0.2-0.1-0.4c-0.4-0.6-1-1.2-1.8-1.6-0.8-0.5-1.7-0.7-2.6-0.8l-0.7-0.1c-0.2 0-0.4 0-0.7 0l-0.8 0.1c-0.4 0-0.7 0.1-1.1 0.1-0.5-0.1-1-0.2-1.6-0.3l-6.5 7.6 1.2-11.6q0 0 0 0l-0.4-0.1c0 0-0.1 0-0.2 0-0.2-0.1-0.6-0.1-1 0-0.8 0.1-1.8 0.5-2.7 1-1.8 1-3.5 2.4-5.2 3.8q-1.3 1.1-2.5 2.2c-0.8 0.8-1.6 1.6-2.4 2.4q-1.2 1.3-2.1 2.7c-0.3 2.4-0.2 4.9 1.6 5.5 3.6 1.2 6.6 3 8.5 1.8 1.8-1.2 4.8-3 4.8-3 0 0-6.1 9-4.8 10.8 1.2 1.8 2.4 5.5 6 3.7 3.6-1.9 8.4-5.5 8.4-5.5 0 0-8.4 9.1-6 10.9 2.4 1.8 4.8 3.6 7.2 1.8 2.4-1.8 6-5.4 6-5.4 0 0-9.6 12.6-5.4 12 4.2-0.6 10.9 3.6 14.5 0.6 1.5-1.3 2.8-2 3.9-2.9q0.1-1.5 0.1-2.9 0-2.1-0.1-4.1zm-13.5 107.2q0 0.1 0 0.1 0 0 0-0.1 0 0 0 0zm-1 3.2q-0.3 0.9-0.6 1.7l0.4-1.1q0.1-0.3 0.2-0.6zm-1.1 3.1c0 0 0-0.1 0-0.2l0.2-0.3q-0.2 0.4-0.4 0.9l0.1-0.2zm-1.5 3q-0.4 0.8-0.9 1.8 0-0.1 0-0.1 0.5-0.9 0.9-1.7zm-123 46.7c1.6 0.6 3 1.3 4.6 1.8l4.8 1.4 4.9 1c1.6 0.4 3.3 0.5 4.9 0.7 1.7 0.3 3.3 0.3 5 0.4l2.5 0.1h2.5c3.3 0 6.7-0.3 10-0.6 6.7-0.8 13.2-2.1 19.7-4 3.2-0.9 6.4-2 9.4-3.2 0.7-0.3 1.5-0.7 2.3-1 0.8-0.5 1.7-0.8 2.6-1 1.8-0.5 3.5-0.8 5.2-1 3.4-0.5 6.8-0.8 10.1-1.3 3.2-0.5 6.5-1.2 8.9-2.8 2.3-1.8 4-4.6 5.3-7.6 1.3-3 2.3-6.2 3-9.3l0.1-0.6 0.5-0.4q1.8-1.3 3.5-2.9c-6.1 2.1-11.8-4.5-16.5-8q2.2 3.6 4.3 7.2c2.2 3.8 4.5 8.2 3.2 12.3-1.6 4.7-7.3 11.2-12.7 11.3-6.9 0.2-7.2-8.6-8.2-13.5 0.7 8.3-17.5 14-23.3 16.9-2.5 1.3-5.1 2.6-7.7 3.6-16.3 6.6-34.2 5-50.9-0.4q1 0.5 2 0.9zm-16.3 197.3c0.5 2.5 0.8 5.6 1 9q0-0.7-0.1-1.4-0.1-2.8-0.4-5.6l-0.3-2.8-0.5-2.7c-0.9-3.6-2.1-7.2-3.4-10.7-2.6-6.8-5.7-13.4-9.1-19.9-0.1 0.8-0.2 1.3-0.2 1.3 0 0 10.2 17.5 13 32.8zm-68-94c3.9 0-2.4-5.4-6.7-8.7 3.2 2.3 8 6.1 12.9 10.2 5.7 4.9 11.5 10.2 14.8 14.3 7.9 10.2 19.8 26.7 19.8 26.7l11.4 3.9c0 0 0 0 0.5-3.4 0.4-2.2 0-9.4-0.3-14.1q-1.1-3.9-2.3-7.8c-1-3.1-2.1-6.1-3.2-9.1q-0.9-2.3-1.9-4.5c-0.7-1.5-1.4-2.9-2.2-4.1-0.8-1.3-2.1-2.4-3.3-3.4q-1.9-1.4-3.9-2.7c-2.7-1.8-5.5-3.4-8.3-4.8l-0.5-0.3v-0.5q0-0.2 0-0.4l-11.1-5.5 8.1 4.5c0 0-44.2-22.6-51-23.8-6.8-1.1-23.8 0.6-34 5.7-10.2 5.1-22.6 7.4-30 18.7-4 6.2-9.8 13.1-13.2 19.5 0.9-1.6 11.6-20.4 26.2-28.6 15.3-8.5 44.2-13.6 44.2-13.6 0 0-9.6 5.1-9.6 10.8 0 5.7 6.2 18.7 6.2 18.7 0 0-20.9 7.9-34.5 21.5-6.6 6.7-12.2 15.3-16.1 22.4 3.3-4.9 7.6-10.2 12.7-15.6 10.2-10.7 29.4-19.8 39.1-23.8 9.6-3.9 30.6-2.2 36.2-2.2zm-131.1-95.6c1.8 3.5 4.5 6.3 7.2 9.2 2.7 2.9 5.5 5.6 8.3 8.3 1.5 1.4 2.9 2.7 4.4 4q2.2 2 4.2 4.2c2.6 2.9 5.1 6 7.1 9.5 1 1.6 1.8 3.5 2.6 5.3q1 2.8 1.9 5.6c1.1 3.8 2.1 7.6 3 11.5q1.4 5.7 2.5 11.5l0.1 0.3-0.2 0.2c-2.7 3.7-5.1 7.7-7.3 11.8q-1.6 3-3.1 6.2c-1 2-1.9 4.2-2.8 6.3-0.8 2.1-1.7 4.3-2.4 6.5-0.8 2.2-1.4 4.4-2.1 6.6-0.5 2.2-1.1 4.4-1.6 6.7l-0.6 3.4c-0.2 1.1-0.3 2.3-0.5 3.4-0.3 2.3-0.2 4.6-0.3 6.8 0 1.2 0.2 2.3 0.2 3.5 0.1 1.1 0.2 2.2 0.4 3.4l0.5 3.4 0.8 3.3c0.2 1.1 0.5 2.2 0.8 3.3 0.4 1.1 0.6 2.3 1 3.3l1.1 3.3c0.4 1.1 0.9 2.1 1.3 3.2 0.4 1.1 0.9 2.1 1.4 3.1q0.7 1.6 1.5 3.2 1.5 3.1 3.2 6c1.2 2 2.4 4 3.7 5.8v0.1l0.1 0.2c0.3 0.5 0.6 1.2 1 1.8q0.6 0.9 1.2 1.8 1.3 1.8 2.6 3.6c0.9 1.1 1.9 2.3 2.9 3.4q1.4 1.6 3.1 3.1c4.2 4 8.8 7.7 13.4 11.3-3.1-6.3-10.3-12.5-15-16.8-5.7-5.1-10.8-22.7-9.1-30.1 0 0-7.4-11.3-8.5-22.1-1.1-10.7-1.3-22.3-1.3-22.3q5.9-11.5 11.8-23c1.9-3.8 3.8-7.7 4.9-11.8 1.9-7 1.2-14.6-0.8-21.6-6.2-22.4-23.6-39.8-40.5-55.7 4.9-2.1 10.4-3.2 15.1-5.5 2.9-1.5 5.4-2.5 7.3-3.3q-2.2 0.6-4.4 1.1-4.4 1-8.9 1.8c-5.1 1-10.2 1.7-15.4 2.1 1.1 3.4 2.5 6.7 4.2 9.8zm-72.4-31.6c1.2 1.5 2.6 3.1 3.9 4.5 4.9 2.7 14.9 7.4 29.1 9.4 20.4 2.8 54.4-4.6 57.2-6.8 2.8-2.3-19.8-11.4-50.4-18.7-5.1-1.3-40.3-10.6-40.7-2.5-0.1 2.2 1.2 4.2 2.4 6q4.9 7.2 10.5 13.9c-6.6-7.2-13.9-13.7-21.7-19.5 3 4.7 6.2 9.3 9.7 13.7zm131.1-137.2q0.6 0.1 1.2 0.3c1 0.2 2 0.3 3.2 0.4q0 0.1 0.1 0.1c3.5-1.1 12-4.3 15.8-9.6 4.7-6.7 3.3-13.5 3.3-13.5-2.2-1.1-5.3-3.6-7.8-3.9q-0.3-0.1-0.7-0.1c-3 4.6-7.3 10.8-11.5 14.4-7.2 6.2-7.2 10.8-3.6 11.9z"/><path class="a" d="m235.2 204.6q-0.3 0.2-0.7 0.5 0.4-0.2 0.7-0.5z"/><path class="a" d="m248.7 266.8c0.1-0.5 0.1-0.8 0.1-0.8 0 0 0 0.3-0.1 0.8z"/><path class="a" d="m227.8 271.7c6.3 3.4 10.8 10.7 17-15.9 0 0-1.1 18.1-1.1 24.4 0 6.2-6.2 26.6-6.2 26.6 0 0-1.7-4-9.1-1.1-7.4 2.8-13.6 5.6-13.6 5.6 0 0 10.2-6.2 7.9-13.6-2.2-7.3-10.7-27.2-10.7-27.2 0 0 9.6-2.2 15.8 1.2z"/><path class="a" d="m77.1 174.8c20.2 10.4 30 19.9 34.4 25.1 4.5-4.1 10.9-10.3 12.7-13.8 2.8-5.7 0-16.4-4-26.1-4-9.6-19.8-15.3-19.8-15.3 0 0 14.1 1.7 23.2-2.8 9.1-4.5 13.6-15.3 13.6-15.3 0 0-1.7 9.1-1.1 15.9 0.5 6.8 18.6 10.7 31.1 11.9 12.5 1.1 42.5 12.4 56.7 20.4 14.1 7.9 14.7 6.2 13.6 1.7-1.2-4.6-11.4-18.7-11.4-18.7 11.9 11.5 26.1 34 9.1 46.8 6.4-5.3-11.4-5.3-14.1-5.5-15.9-1.1-53.9-1.1-53.9-1.1 0 0 2.8-5.1-6.8-7.9-9.6-2.9-30-0.6-30-0.6 0 0 12.4-0.6 23.8 2.3 11.3 2.8 3.9 8.5 3.9 8.5l9.1 3.9c0 0 6.2 6.8 1.7 9.1-4.5 2.3-18.7 4.5-18.7 4.5 0 0 13 1.7 16.4 6.3 3.4 4.5-3.4 6.2-3.4 6.2 0 0 7.4 3.4 15.9 5.1 8.5 1.7 25.5-0.6 30-5.1 4.6-4.5 31.2-24.9 31.2-24.9 0 0-17.6 16.4-23.8 24.3-6.2 8-19.8 23.3-19.8 23.3 0 0-1.2 3.9 1.1 10.2 2.3 6.2 6.8 19.8 6.8 19.8l-6.8-4.5-7.4-15.3c0 0-9-10.2-15.3-15.3-6.2-5.1-57.2-27.8-57.2-27.8 0 0-18.7-8.5-40.8-14.7 0 0 23.5 4.7 36.2 8.2l-6.7-9.4c0 0 0.1-0.1 0.3-0.2-2.9-4-7-9.5-10.5-13.4-6.2-6.8-19.3-15.8-19.3-15.8z"/><path class="a" d="m59 159.5c0 0-17.6 7.9-24.4 23.2-6.8 15.3-2.8 27.2-2.8 27.2 0 0-7.9-17 1.7-33.4 9.6-16.5 25.5-17 25.5-17z"/><path class="a" d="m233 375.1c-2.1-1.6-3.5-2.6-3.5-2.6 0 0 1.6 1.1 3.5 2.6z"/><path class="a" d="m253.3 319.8c-10.2-3.9-7.3 4-7.3 4l-4-9.1c0 0 0 0 4 1.2 3.9 1.1 7.3 3.9 7.3 3.9z"/><path class="a" d="m234.6 217.8c-10.7 13.1-27.7 43.1-27.7 43.1 0 0-2.3-9.6 2.2-16.4 4.6-6.8 25.5-26.7 25.5-26.7z"/><path class="a" d="m218.9 76.8c0.2-0.7 0.3-1.1 0.3-1.1 0 0-0.1 0.4-0.3 1.1z"/><path class="a" d="m216.3 75.7c0 0-7.1 0-11.3-3.3-4.3-3.3-3.8-6.1-3.3-8.5 0.4-2.3 6.6-1.9 8.5-4.2 1.8-2.4-6.6-5.2-6.6-5.2 3.7-0.5 8.4 0.9 11.3 5.7 2.8 4.7-1 6.6-1 6.6 0 0-8 0-6.6 3.3 1.4 3.3 9 5.6 9 5.6z"/></svg>